<svg width="256" height="256" viewBox="0 0 256 256" fill="none" xmlns="http://www.w3.org/2000/svg">
  <title>VT Lantern x vt-playground</title>
  <desc>Lantern combined with vt-playground.</desc>
  <rect x="26" y="26" width="204" height="204" rx="42" fill="#10151F"/>
  <path d="M128 44L184 86V174L128 212L72 174V86L128 44Z" fill="#93F36B"/>
  <path d="M92 86H164L154 114H102L92 86Z" fill="#FFF2D6"/>
  <rect x="118" y="78" width="20" height="68" rx="10" fill="#FFF2D6"/>
  <path d="M94 126H110L128 156L146 126H162L134 190H122L94 126Z" fill="#FF6B57"/>
  <path d="M112 58H144V70H112V58Z" fill="#FF6B57"/>

  <circle cx="188" cy="72" r="20" fill="#0C1017"/>
  <path d="M178 73C178 67 183 63 189 63C194 63 199 66 201 71" stroke="#93F36B" stroke-width="5" stroke-linecap="round"/>
  <path d="M174 80C174 87 180 92 187 92C194 92 199 88 202 83" stroke="#FF6B57" stroke-width="5" stroke-linecap="round"/>
  <circle cx="201" cy="66" r="3.5" fill="#FFF2D6"/>
</svg>
