<svg width="256" height="256" viewBox="0 0 256 256" fill="none" xmlns="http://www.w3.org/2000/svg">
  <title>VT Meridian x vt-playground</title>
  <desc>Meridian combined with vt-playground.</desc>
  <rect x="26" y="26" width="204" height="204" rx="40" fill="#10151F"/>
  <path d="M128 46L186 104L128 210L70 104L128 46Z" fill="#93F36B"/>
  <circle cx="128" cy="128" r="54" fill="#10151F" fill-opacity="0.82"/>
  <circle cx="128" cy="128" r="70" stroke="#FFF2D6" stroke-width="10"/>
  <path d="M120 74H136V182H120V74Z" fill="#FFF2D6"/>
  <path d="M86 146H104L128 182L152 146H170L136 210H120L86 146Z" fill="#FF6B57"/>

  <circle cx="188" cy="72" r="20" fill="#0C1017"/>
  <path d="M178 73C178 67 183 63 189 63C194 63 199 66 201 71" stroke="#93F36B" stroke-width="5" stroke-linecap="round"/>
  <path d="M174 80C174 87 180 92 187 92C194 92 199 88 202 83" stroke="#FF6B57" stroke-width="5" stroke-linecap="round"/>
  <circle cx="201" cy="66" r="3.5" fill="#FFF2D6"/>
</svg>
