<svg width="256" height="256" viewBox="0 0 256 256" fill="none" xmlns="http://www.w3.org/2000/svg">
  <title>Signal Final x vt-asset-studio</title>
  <desc>Signal Final applied to vt-asset-studio.</desc>
  <circle cx="128" cy="128" r="104" fill="#281324"/>
  <circle cx="128" cy="128" r="84" fill="#281324" fill-opacity="0.72"/>
  <path d="M128 60C166 60 196 90 196 128" stroke="#FF4FA3" stroke-width="15" stroke-linecap="round"/>
  <path d="M128 84C153 84 172 103 172 128" stroke="#FFB36B" stroke-width="13" stroke-linecap="round"/>
  <path d="M60 128C60 90 90 60 128 60" stroke="#FFF1D8" stroke-width="13" stroke-linecap="round"/>
  <circle cx="128" cy="128" r="30" fill="#FFF1D8"/>
  <path d="M121 92H135V148H121V92Z" fill="#281324"/>
  <path d="M100 148H114L128 172L142 148H156L134 192H122L100 148Z" fill="#FFB36B"/>

  <rect x="170" y="54" width="40" height="40" rx="12" fill="#190912"/>
  <path d="M180 68V64C180 61 182 59 185 59H189" stroke="#FFF1D8" stroke-width="3.5" stroke-linecap="round"/>
  <path d="M200 68V64C200 61 198 59 195 59H191" stroke="#FFF1D8" stroke-width="3.5" stroke-linecap="round"/>
  <path d="M180 80V84C180 87 182 89 185 89H189" stroke="#FFF1D8" stroke-width="3.5" stroke-linecap="round"/>
  <path d="M200 80V84C200 87 198 89 195 89H191" stroke="#FFF1D8" stroke-width="3.5" stroke-linecap="round"/>
  <path d="M190 60L192 65L197 67L192 69L190 74L188 69L183 67L188 65L190 60Z" fill="#FFB36B"/>
</svg>
