<svg width="256" height="256" viewBox="0 0 256 256" fill="none" xmlns="http://www.w3.org/2000/svg">
  <title>VT Signal x vt-asset-studio</title>
  <desc>Signal combined with vt-asset-studio.</desc>
  <circle cx="128" cy="128" r="102" fill="#281324"/>
  <path d="M128 58C167 58 198 89 198 128" stroke="#FF4FA3" stroke-width="16" stroke-linecap="round"/>
  <path d="M128 82C154 82 174 102 174 128" stroke="#FFB36B" stroke-width="14" stroke-linecap="round"/>
  <path d="M58 128C58 89 89 58 128 58" stroke="#FFF1D8" stroke-width="14" stroke-linecap="round"/>
  <circle cx="128" cy="128" r="34" fill="#FFF1D8"/>
  <rect x="121" y="86" width="14" height="60" rx="7" fill="#281324"/>
  <path d="M98 148H114L128 172L142 148H158L136 192H120L98 148Z" fill="#FFB36B"/>

  <rect x="170" y="54" width="40" height="40" rx="12" fill="#190912"/>
  <path d="M180 68V64C180 61 182 59 185 59H189" stroke="#FFF1D8" stroke-width="3.5" stroke-linecap="round"/>
  <path d="M200 68V64C200 61 198 59 195 59H191" stroke="#FFF1D8" stroke-width="3.5" stroke-linecap="round"/>
  <path d="M180 80V84C180 87 182 89 185 89H189" stroke="#FFF1D8" stroke-width="3.5" stroke-linecap="round"/>
  <path d="M200 80V84C200 87 198 89 195 89H191" stroke="#FFF1D8" stroke-width="3.5" stroke-linecap="round"/>
  <path d="M190 60L192 65L197 67L192 69L190 74L188 69L183 67L188 65L190 60Z" fill="#FFB36B"/>
</svg>
