<svg width="256" height="256" viewBox="0 0 256 256" fill="none" xmlns="http://www.w3.org/2000/svg">
  <title>Signal Final x gemini-ai-lib</title>
  <desc>Signal Final applied to gemini-ai-lib.</desc>
  <circle cx="128" cy="128" r="104" fill="#151334"/>
  <circle cx="128" cy="128" r="84" fill="#151334" fill-opacity="0.72"/>
  <path d="M128 60C166 60 196 90 196 128" stroke="#8B6CFF" stroke-width="15" stroke-linecap="round"/>
  <path d="M128 84C153 84 172 103 172 128" stroke="#27E3D8" stroke-width="13" stroke-linecap="round"/>
  <path d="M60 128C60 90 90 60 128 60" stroke="#EFF2FF" stroke-width="13" stroke-linecap="round"/>
  <circle cx="128" cy="128" r="30" fill="#EFF2FF"/>
  <path d="M121 92H135V148H121V92Z" fill="#151334"/>
  <path d="M100 148H114L128 172L142 148H156L134 192H122L100 148Z" fill="#27E3D8"/>

  <circle cx="188" cy="72" r="20" fill="#0F0D25"/>
  <path d="M188 61L179 72L188 83L197 72L188 61Z" fill="#EFF2FF"/>
  <path d="M188 72V57" stroke="#8B6CFF" stroke-width="4" stroke-linecap="round"/>
  <path d="M188 72L176 79" stroke="#27E3D8" stroke-width="4" stroke-linecap="round"/>
  <path d="M188 72L200 79" stroke="#8B6CFF" stroke-width="4" stroke-linecap="round"/>
  <circle cx="188" cy="55" r="3.5" fill="#8B6CFF"/>
  <circle cx="174" cy="81" r="3.5" fill="#27E3D8"/>
  <circle cx="202" cy="81" r="3.5" fill="#EFF2FF"/>
</svg>
