<?xml version="1.0" encoding="UTF-8"?>
<svg width="256" height="256" viewBox="0 0 256 256" fill="none" xmlns="http://www.w3.org/2000/svg" role="img" aria-labelledby="vt-cascade-vt-playground-title">
  <title id="vt-cascade-vt-playground-title">Cascade x vt-playground balanced hybrid</title>
  <defs>
    <linearGradient id="vt-cascade-vt-playground-bg" x1="24" y1="24" x2="232" y2="232" gradientUnits="userSpaceOnUse">
      <stop offset="0" stop-color="#0D182A"/>
      <stop offset="1" stop-color="#08101A"/>
    </linearGradient>
    <linearGradient id="vt-cascade-vt-playground-left" x1="28" y1="40" x2="124" y2="216" gradientUnits="userSpaceOnUse">
      <stop offset="0" stop-color="#FF7A59"/>
      <stop offset="1" stop-color="#FFC46B"/>
    </linearGradient>
    <linearGradient id="vt-cascade-vt-playground-right" x1="132" y1="40" x2="228" y2="216" gradientUnits="userSpaceOnUse">
      <stop offset="0" stop-color="#1DD3B0"/>
      <stop offset="1" stop-color="#22D3EE"/>
    </linearGradient>
    <linearGradient id="vt-cascade-vt-playground-seam" x1="112" y1="40" x2="144" y2="216" gradientUnits="userSpaceOnUse">
      <stop offset="0" stop-color="#FFF1C4"/>
      <stop offset="1" stop-color="#D9FFF8"/>
    </linearGradient>
  </defs>
  <rect x="12" y="12" width="232" height="232" rx="52" fill="url(#vt-cascade-vt-playground-bg)"/>
  <rect x="20" y="20" width="216" height="216" rx="46" stroke="#FFFFFF" stroke-opacity="0.12" stroke-width="2"/>
  <rect x="28" y="40" width="96" height="176" rx="34" fill="url(#vt-cascade-vt-playground-left)"/>
  <rect x="132" y="40" width="96" height="176" rx="34" fill="url(#vt-cascade-vt-playground-right)"/>
  <path d="M118 50C129 61 136 81 136 128C136 175 129 195 118 206H138C149 195 156 175 156 128C156 81 149 61 138 50H118Z" fill="url(#vt-cascade-vt-playground-seam)" fill-opacity="0.96"/>
  <path d="M52 64H108M148 64H204M52 192H108M148 192H204" stroke="#FFFFFF" stroke-opacity="0.18" stroke-width="4" stroke-linecap="round"/>
  
        <rect x="40" y="78" width="72" height="14" rx="7" fill="#FFF1C4" fill-opacity="0.92"/>
        <rect x="45" y="109" width="11" height="30" rx="5.5" fill="#FFF1C4" fill-opacity="0.94"/>
        <rect x="63" y="117" width="11" height="46" rx="5.5" fill="#FFC46B" fill-opacity="0.92"/>
        <rect x="81" y="125" width="11" height="62" rx="5.5" fill="#FFF1C4" fill-opacity="0.8"/>
        <rect x="99" y="133" width="11" height="78" rx="5.5" fill="#FFC46B" fill-opacity="0.98"/>
        <path d="M42 88H110" stroke="#FFFFFF" stroke-opacity="0.34" stroke-width="4" stroke-linecap="round"/>
      
  
        <circle cx="180" cy="128" r="31" stroke="#FFFFFF" stroke-opacity="0.9" stroke-width="12" fill="none"/>
        <path d="M156 150C179 151 205 134 206 110" stroke="#22D3EE" stroke-width="8" stroke-linecap="round" fill="none"/>
        <circle cx="206" cy="106" r="8" fill="#D9FFF8" fill-opacity="0.96"/>
        <circle cx="156" cy="150" r="6" fill="#22D3EE" fill-opacity="0.96"/>
      
  <circle cx="128" cy="128" r="10" fill="#FFFFFF" fill-opacity="0.84"/>
  <circle cx="128" cy="128" r="4" fill="#09101A"/>
  <path d="M128 54V80M128 176V202" stroke="#FFFFFF" stroke-opacity="0.22" stroke-width="4" stroke-linecap="round"/>
</svg>
