<svg width="256" height="256" viewBox="0 0 256 256" fill="none" xmlns="http://www.w3.org/2000/svg">
  <title>VT Facet Final</title>
  <desc>Refined facet finalist for VT with a cleaner crystal silhouette and luminous internal planes.</desc>
  <rect x="24" y="24" width="208" height="208" rx="40" fill="#14111F"/>
  <path d="M128 42L198 88L170 214H86L58 88L128 42Z" fill="#22183E"/>
  <path d="M92 92H164L150 128H106L92 92Z" fill="#F1D0FF"/>
  <path d="M106 128H150L128 214L106 128Z" fill="#67E8F9"/>
  <path d="M128 42L92 92L106 128L128 214L150 128L164 92L128 42Z" stroke="#FFFFFF" stroke-opacity="0.14" stroke-width="4"/>
  <path d="M108 98H148V114H132V160H124V114H108V98Z" fill="#14111F"/>
  <path d="M84 132H104L128 170L152 132H172L136 210H120L84 132Z" fill="#C4F66B" fill-opacity="0.78"/>
</svg>
