<svg width="256" height="256" viewBox="0 0 256 256" fill="none" xmlns="http://www.w3.org/2000/svg">
  <title>VT Facet Final x gemini-ai-lib</title>
  <desc>Refined facet finalist applied to gemini-ai-lib with a compact runtime-node accent.</desc>
  <rect x="24" y="24" width="208" height="208" rx="40" fill="#052E2B"/>
  <path d="M128 42L198 88L170 214H86L58 88L128 42Z" fill="#064E3B"/>
  <path d="M92 92H164L150 128H106L92 92Z" fill="#D5FFF2"/>
  <path d="M106 128H150L128 214L106 128Z" fill="#22D3EE"/>
  <path d="M128 42L92 92L106 128L128 214L150 128L164 92L128 42Z" stroke="#FFFFFF" stroke-opacity="0.14" stroke-width="4"/>
  <path d="M108 98H148V114H132V160H124V114H108V98Z" fill="#052E2B"/>
  <path d="M84 132H104L128 170L152 132H172L136 210H120L84 132Z" fill="#10B981" fill-opacity="0.78"/>
  <circle cx="188" cy="72" r="14" fill="#04312B"/>
  <path d="M188 62L180 72L188 82L196 72L188 62Z" fill="#ECFDF5"/>
  <path d="M188 72V60" stroke="#22D3EE" stroke-width="3.5" stroke-linecap="round"/>
  <path d="M188 72L178 78" stroke="#10B981" stroke-width="3.5" stroke-linecap="round"/>
  <path d="M188 72L198 78" stroke="#34D399" stroke-width="3.5" stroke-linecap="round"/>
  <circle cx="188" cy="58" r="3" fill="#22D3EE"/>
  <circle cx="176" cy="79" r="3" fill="#10B981"/>
  <circle cx="200" cy="79" r="3" fill="#34D399"/>
</svg>
