<svg width="256" height="256" viewBox="0 0 256 256" fill="none" xmlns="http://www.w3.org/2000/svg">
  <title>VT Facet Final x vt-design-system</title>
  <desc>Refined facet finalist applied to vt-design-system with a controlled blueprint palette.</desc>
  <rect x="24" y="24" width="208" height="208" rx="40" fill="#0D1630"/>
  <path d="M128 42L198 88L170 214H86L58 88L128 42Z" fill="#1A2144"/>
  <path d="M92 92H164L150 128H106L92 92Z" fill="#DCE9FF"/>
  <path d="M106 128H150L128 214L106 128Z" fill="#5B8CFF"/>
  <path d="M128 42L92 92L106 128L128 214L150 128L164 92L128 42Z" stroke="#FFFFFF" stroke-opacity="0.14" stroke-width="4"/>
  <path d="M108 98H148V114H132V160H124V114H108V98Z" fill="#0D1630"/>
  <path d="M84 132H104L128 170L152 132H172L136 210H120L84 132Z" fill="#8A5CFF" fill-opacity="0.78"/>
  <rect x="170" y="56" width="36" height="36" rx="10" fill="#081225"/>
  <rect x="178" y="64" width="8" height="8" rx="3" fill="#5B8CFF"/>
  <rect x="191" y="64" width="10" height="20" rx="4" fill="#EFF6FF"/>
  <rect x="178" y="77" width="23" height="10" rx="4" fill="#8A5CFF"/>
</svg>
