<svg width="256" height="256" viewBox="0 0 256 256" fill="none" xmlns="http://www.w3.org/2000/svg">
  <title>VT Turbine Final x vt-design-system</title>
  <desc>Refined turbine finalist applied to vt-design-system with structured package accenting.</desc>
  <circle cx="128" cy="128" r="104" fill="#0D1630"/>
  <circle cx="128" cy="128" r="86" fill="#081225"/>
  <circle cx="128" cy="128" r="102" stroke="#324B89" stroke-width="4"/>
  <g transform="translate(128 128)">
    <path d="M0 -74C19 -74 36 -57 36 -38V-10L0 0V-74Z" fill="#5B8CFF"/>
    <path d="M0 -74C19 -74 36 -57 36 -38V-10L0 0V-74Z" transform="rotate(120)" fill="#8A5CFF"/>
    <path d="M0 -74C19 -74 36 -57 36 -38V-10L0 0V-74Z" transform="rotate(240)" fill="#A7C5FF"/>
  </g>
  <circle cx="128" cy="128" r="28" fill="#EFF6FF"/>
  <path d="M110 116H146V128H132V164H124V128H110V116Z" fill="#0D1630"/>
  <path d="M100 144H114L128 168L142 144H156L134 192H122L100 144Z" fill="#8A5CFF" fill-opacity="0.86"/>
  <rect x="178" y="64" width="24" height="24" rx="7" fill="#081225"/>
  <rect x="183" y="69" width="6" height="6" rx="2" fill="#5B8CFF"/>
  <rect x="192" y="69" width="6" height="14" rx="3" fill="#EFF6FF"/>
  <rect x="183" y="78" width="15" height="6" rx="3" fill="#8A5CFF"/>
</svg>
