<svg width="256" height="256" viewBox="0 0 256 256" fill="none" xmlns="http://www.w3.org/2000/svg">
  <title>Gemini AI Lib Mark 25 Shard</title>
  <desc>AI library shard crest with emerald facets and cyan compute seam highlights.</desc>
  <rect x="26" y="26" width="204" height="204" rx="36" fill="#064E3B"/>
  <path d="M128 38L206 94L176 210H80L50 94L128 38Z" fill="#065F46"/>
  <path d="M128 56L182 96L160 188H96L74 96L128 56Z" fill="#047857"/>
  <path d="M92 96H164V118H142V182H114V118H92V96Z" fill="#D1FAE5"/>
  <path d="M78 122H102L128 174L154 122H178L140 206H116L78 122Z" fill="#10B981"/>
  <path d="M50 94L128 132L206 94L176 78L128 110L80 78L50 94Z" fill="#22D3EE" fill-opacity="0.9"/>
</svg>
